<svg width="11" height="7" viewBox="0 0 11 7" fill="none" xmlns="http://www.w3.org/2000/svg">
<g clip-path="url(#clip0_2777_3332)">
<path d="M5.36425 0C5.07128 0.00294018 4.83104 0.1113 4.59667 0.345721L0.26658 4.78125C0.0878992 4.95996 -9.53674e-07 5.1709 -9.53674e-07 5.42578C-9.53674e-07 5.94727 0.418921 6.36914 0.931621 6.36914C1.1865 6.36914 1.42674 6.2666 1.61718 6.07031L5.59863 1.95996H5.12109L9.11425 6.07031C9.30469 6.26074 9.54199 6.36914 9.80274 6.36914C10.3184 6.36914 10.7344 5.94727 10.7344 5.42578C10.7344 5.17383 10.6436 4.96289 10.4707 4.77832L6.13476 0.345721C5.89452 0.105481 5.65722 0 5.36425 0Z" fill="#696969"/>
</g>
<defs>
<clipPath id="clip0_2777_3332">
<rect width="10.7344" height="6.73242" fill="white" transform="matrix(-1 0 0 -1 10.7344 6.73242)"/>
</clipPath>
</defs>
</svg>
