<svg width="78" height="52" viewBox="0 0 78 52" fill="none" xmlns="http://www.w3.org/2000/svg">
<rect x="0.5" y="0.5" width="77" height="51" rx="7.5" fill="white" stroke="#0B2878"/>
<rect x="13.3417" y="32.054" width="7.26187" height="23.2882" rx="3.63094" transform="rotate(-59.9057 13.3417 32.054)" fill="white" stroke="#0B2878" stroke-width="0.5"/>
<rect x="-0.0909698" y="-0.34165" width="7.26187" height="23.2882" rx="3.63094" transform="matrix(0.50136 -0.865239 -0.865239 -0.50136 60.7684 35.3841)" fill="white" stroke="#0B2878" stroke-width="0.5"/>
<rect x="-0.341657" y="-0.0909442" width="7.26187" height="23.2882" rx="3.63094" transform="matrix(-0.501425 -0.865201 -0.865201 0.501425 64.4083 31.804)" fill="white" stroke="#0B2878" stroke-width="0.5"/>
<rect x="16.9816" y="35.6341" width="7.26187" height="23.2882" rx="3.63094" transform="rotate(-120.09 16.9816 35.6341)" fill="white" stroke="#0B2878" stroke-width="0.5"/>
<rect x="40.2164" y="15.4492" width="1.66667" height="29.8333" rx="0.833334" transform="rotate(8.06259 40.2164 15.4492)" fill="white" stroke="#0B2878" stroke-width="0.5"/>
<line y1="8.16663" x2="78" y2="8.16663" stroke="#0B2878"/>
<path d="M10.584 4.875C10.584 5.63439 9.96838 6.25 9.20898 6.25C8.44959 6.25 7.83398 5.63439 7.83398 4.875C7.83398 4.11561 8.44959 3.5 9.20898 3.5C9.96838 3.5 10.584 4.11561 10.584 4.875Z" stroke="#0B2878" stroke-width="0.5"/>
<circle cx="13.541" cy="4.875" r="1.375" stroke="#0B2878" stroke-width="0.5"/>
<circle cx="17.875" cy="4.875" r="1.375" stroke="#0B2878" stroke-width="0.5"/>
</svg>
