<svg width="90" height="60" viewBox="0 0 90 60" fill="none" xmlns="http://www.w3.org/2000/svg">
<path d="M0.5 8C0.5 3.85786 3.85786 0.5 8 0.5H42C46.1421 0.5 49.5 3.85786 49.5 8V27C49.5 31.1421 46.1421 34.5 42 34.5H23.4526C21.1983 34.5 19.0362 35.3955 17.4422 36.9896L13.5842 40.8476C13.5278 40.904 13.4785 40.9669 13.4372 41.0349L14.1446 36.5784C14.3178 35.4874 13.4748 34.5 12.3701 34.5H6.39673C3.14005 34.5 0.5 31.8599 0.5 28.6033V8Z" fill="white" stroke="#0B2878"/>
<path d="M89.5 24.25C89.5 20.1079 86.1421 16.75 82 16.75H48C43.8579 16.75 40.5 20.1079 40.5 24.25V43.25C40.5 47.3921 43.8579 50.75 48 50.75H66.5474C68.8017 50.75 70.9638 51.6455 72.5578 53.2396L76.4158 57.0976C76.4722 57.154 76.5215 57.2169 76.5628 57.2849L75.8554 52.8284C75.6822 51.7374 76.5252 50.75 77.6299 50.75H83.6033C86.8599 50.75 89.5 48.1099 89.5 44.8533V24.25Z" fill="white" stroke="#0B2878"/>
<path d="M27.55 25.116C26.35 25.628 25.11 25.884 23.83 25.884C22.15 25.884 20.622 25.492 19.246 24.708C17.886 23.908 16.814 22.82 16.03 21.444C15.246 20.068 14.854 18.556 14.854 16.908C14.854 15.26 15.246 13.748 16.03 12.372C16.814 10.996 17.886 9.916 19.246 9.132C20.622 8.332 22.15 7.932 23.83 7.932C25.51 7.932 27.03 8.332 28.39 9.132C29.766 9.916 30.846 10.996 31.63 12.372C32.414 13.748 32.806 15.26 32.806 16.908C32.806 18.22 32.558 19.444 32.062 20.58C31.566 21.716 30.87 22.7 29.974 23.532L31.294 25.5L28.894 27.108L27.55 25.116ZM23.83 22.812C24.454 22.812 25.102 22.692 25.774 22.452L23.902 19.644L26.302 18.012L28.174 20.844C28.622 20.348 28.966 19.764 29.206 19.092C29.446 18.42 29.566 17.692 29.566 16.908C29.566 15.756 29.31 14.732 28.798 13.836C28.302 12.94 27.614 12.244 26.734 11.748C25.854 11.252 24.886 11.004 23.83 11.004C22.774 11.004 21.806 11.252 20.926 11.748C20.062 12.244 19.374 12.94 18.862 13.836C18.366 14.732 18.118 15.756 18.118 16.908C18.118 18.06 18.366 19.084 18.862 19.98C19.374 20.876 20.062 21.572 20.926 22.068C21.806 22.564 22.774 22.812 23.83 22.812Z" fill="#0B2878"/>
<path d="M62.792 24.816H66.512L72.968 42H69.392L67.952 37.896H61.376L59.936 42H56.36L62.792 24.816ZM66.896 34.92L65.384 30.6L64.76 28.536H64.568L63.944 30.6L62.408 34.92H66.896Z" fill="#0B2878"/>
</svg>
