<svg width="23" height="18" viewBox="0 0 23 18" fill="none" xmlns="http://www.w3.org/2000/svg">
<path id="Vector" d="M18.7697 1.435C17.3347 0.77 15.8064 0.28 14.1964 0C13.9981 0.35 13.7647 0.828333 13.6131 1.21333C11.9097 0.956667 10.2181 0.956667 8.54975 1.21333C8.38642 0.828333 8.15308 0.35 7.95475 0C6.34475 0.28 4.81642 0.77 3.38142 1.435C0.488086 5.79833 -0.293581 10.0567 0.0914187 14.245C2.01642 15.68 3.87142 16.5434 5.70308 17.115C6.15808 16.4967 6.55475 15.8317 6.90475 15.1434C6.23975 14.8984 5.60975 14.5834 5.01475 14.2217C5.17809 14.105 5.32975 13.9767 5.48142 13.86C9.13307 15.5634 13.0881 15.5634 16.6931 13.86C16.8447 13.9884 16.9964 14.105 17.1597 14.2217C16.5647 14.5834 15.9231 14.8867 15.2697 15.1434C15.6197 15.8317 16.0164 16.4967 16.4714 17.115C18.3031 16.5434 20.1697 15.68 22.0831 14.245C22.5381 9.38004 21.3014 5.16833 18.7931 1.435H18.7697ZM7.39475 11.6784C6.29808 11.6784 5.39975 10.6634 5.39975 9.41504C5.39975 8.1667 6.27475 7.1517 7.39475 7.1517C8.51475 7.1517 9.40141 8.1667 9.38974 9.41504C9.38974 10.6517 8.51475 11.6784 7.39475 11.6784ZM14.7564 11.6784C13.6597 11.6784 12.7614 10.6634 12.7614 9.41504C12.7614 8.1667 13.6364 7.1517 14.7564 7.1517C15.8764 7.1517 16.7631 8.1667 16.7514 9.41504C16.7514 10.6517 15.8764 11.6784 14.7564 11.6784Z" fill="white"/>
</svg>
