<svg width="21" height="20" viewBox="0 0 21 20" fill="none" xmlns="http://www.w3.org/2000/svg">
<path id="Vector" fill-rule="evenodd" clip-rule="evenodd" d="M4.08203 0C1.87289 0 0.0820312 1.79086 0.0820312 4V16C0.0820312 18.2091 1.87289 20 4.08203 20H16.082C18.2911 20 20.082 18.2091 20.082 16V4C20.082 1.79086 18.2911 0 16.082 0H4.08203ZM2.08203 4C2.08203 2.89543 2.97746 2 4.08203 2H16.082C17.1866 2 18.082 2.89543 18.082 4V16C18.082 17.1046 17.1866 18 16.082 18H4.08203C2.97746 18 2.08203 17.1046 2.08203 16V4ZM7.08203 9C7.08203 8.4477 6.63431 8 6.08203 8C5.52975 8 5.08203 8.4477 5.08203 9V15C5.08203 15.5523 5.52975 16 6.08203 16C6.63431 16 7.08203 15.5523 7.08203 15V9ZM7.58203 5.5C7.58203 6.32843 6.91046 7 6.08203 7C5.2536 7 4.58203 6.32843 4.58203 5.5C4.58203 4.67157 5.2536 4 6.08203 4C6.91046 4 7.58203 4.67157 7.58203 5.5ZM10.082 8C10.4215 8 10.7215 8.1692 10.9023 8.4279C11.4149 8.1502 11.9856 8 12.582 8C14.7414 8 16.082 9.9258 16.082 11.5714V11.579V11.5865V11.5941V11.6017V11.6093V11.617V11.6246V11.6323V11.64V11.6477V11.6555V11.6632V11.671V11.6788V11.6866V11.6944V11.7022V11.7101V11.718V11.7258V11.7338V11.7417V11.7496V11.7576V11.7655V11.7735V11.7815V11.7896V11.7976V11.8057V11.8137V11.8218V11.8299V11.838V11.8462V11.8543V11.8625V11.8706V11.8788V11.887V11.8953V11.9035V11.9117V11.92V11.9283V11.9365V11.9448V11.9532V11.9615V11.9698V11.9782V11.9866V11.9949V12.0033V12.0117V12.0201V12.0286V12.037V12.0455V12.0539V12.0624V12.0709V12.0794V12.0879V12.0964V12.1049V12.1135V12.122V12.1306V12.1392V12.1478V12.1563V12.165V12.1736V12.1822V12.1908V12.1995V12.2081V12.2168V12.2254V12.2341V12.2428V12.2515V12.2602V12.2689V12.2776V12.2864V12.2951V12.3039V12.3126V12.3214V12.3301V12.3389V12.3477V12.3565V12.3653V12.3741V12.3829V12.3917V12.4005V12.4093V12.4182V12.427V12.4359V12.4447V12.4536V12.4624V12.4713V12.4802V12.4891V12.4979V12.5068V12.5157V12.5246V12.5335V12.5424V12.5513V12.5602V12.5692V12.5781V12.587V12.5959V12.6049V12.6138V12.6227V12.6317V12.6406V12.6496V12.6585V12.6674V12.6764V12.6854V12.6943V12.7033V12.7122V12.7212V12.7302V12.7391V12.7481V12.757V12.766V12.775V12.7839V12.7929V12.8019V12.8108V12.8198V12.8288V12.8378V12.8467V12.8557V12.8647V12.8736V12.8826V12.8916V12.9005V12.9095V12.9184V12.9274V12.9363V12.9453V12.9543V12.9632V12.9722V12.9811V12.99V12.999V13.0079V13.0169V13.0258V13.0347V13.0436V13.0526V13.0615V13.0704V13.0793V13.0882V13.0971V13.106V13.1149V13.1238V13.1327V13.1416V13.1504V13.1593V13.1682V13.177V13.1859V13.1947V13.2036V13.2124V13.2213V13.2301V13.2389V13.2477V13.2565V13.2653V13.2741V13.2829V13.2917V13.3005V13.3092V13.318V13.3267V13.3355V13.3442V13.3529V13.3616V13.3703V13.379V13.3877V13.3964V13.4051V13.4138V13.4224V13.4311V13.4397V13.4483V13.457V13.4656V13.4742V13.4827V13.4913V13.4999V13.5085V13.517V13.5255V13.5341V13.5426V13.5511V13.5596V13.5681V13.5765V13.585V13.5934V13.6019V13.6103V13.6187V13.6271V13.6355V13.6439V13.6522V13.6606V13.6689V13.6772V13.6855V13.6938V13.7021V13.7104V13.7186V13.7269V13.7351V13.7433V13.7515V13.7597V13.7679V13.776V13.7842V13.7923V13.8004V13.8085V13.8166V13.8246V13.8327V13.8407V13.8487V13.8567V13.8647V13.8727V13.8806V13.8885V13.8965V13.9044V13.9122V13.9201V13.928V13.9358V13.9436V13.9514V13.9592V13.9669V13.9747V13.9824V13.9901V13.9978V14.0055V14.0131V14.0208V14.0284V14.036V14.0435V14.0511V14.0586V14.0661V14.0736V14.0811V14.0886V14.096V14.1034V14.1108V14.1182V14.1255V14.1329V14.1402V14.1475V14.1547V14.162V14.1692V14.1764V14.1836V14.1908V14.1979V14.205V14.2121V14.2192V14.2262V14.2332V14.2402V14.2472V14.2542V14.2611V14.268V14.2749V14.2818V14.2886V14.2954V14.3022V14.309V14.3157V14.3224V14.3291V14.3358V14.3425V14.3491V14.3557V14.3622V14.3688V14.3753V14.3818V14.3882V14.3947V14.4011V14.4075V14.4138V14.4202V14.4265V14.4328V14.439V14.4452V14.4514V14.4576V14.4638V14.4699V14.476V14.482V14.4881V14.4941V14.5V14.506V14.5119V14.5178V14.5237V14.5295V14.5353V14.5411V14.5468V14.5525V14.5582V14.5639V14.5695V14.5751V14.5807V14.5862V14.5917V14.5972V14.6026V14.6081V14.6134V14.6188V14.6241V14.6294V14.6347V14.6399V14.6451V14.6503V14.6554V14.6605V14.6656V14.6706V14.6756V14.6806V14.6855V14.6904V14.6953V14.7001V14.7049V14.7097V14.7144V14.7191V14.7238V14.7284V14.733V14.7376V14.7421V14.7466V14.7511V14.7555V14.7599V14.7643V14.7686V14.7729V14.7771V14.7813V14.7855V14.7897V14.7938V14.7978V14.8019V14.8059V14.8098V14.8138V14.8177V14.8215V14.8253V14.8291V14.8328V14.8365V14.8402V14.8438V14.8474V14.851V14.8545V14.858V14.8614V14.8648V14.8682V14.8715V14.8748V14.878V14.8812V14.8844V14.8875V14.8906V14.8936V14.8966V14.8996V14.9025V14.9054V14.9083V14.9111V14.9138V14.9165V14.9192V14.9219V14.9245V14.927V14.9295V14.932V14.9344V14.9368V14.9392V14.9415V14.9438V14.946V14.9481V14.9503V14.9524V14.9544V14.9564V14.9584V14.9603V14.9622V14.964V14.9658V14.9676V14.9693V14.9709V14.9725V14.9741V14.9756V14.9771V14.9785V14.9799V14.9813V14.9826V14.9838V14.985V14.9862V14.9873V14.9884V14.9894V14.9913V14.993V14.9946V14.9959V14.9971V14.9984V14.9996C16.082 15.5519 15.6343 16 15.082 16C14.5297 16 14.082 15.5523 14.082 15V14.9988V14.9976V14.9965V14.9953V14.9938V14.9922V14.9904V14.9884V14.9873V14.9862V14.985V14.9838V14.9826V14.9813V14.9799V14.9785V14.9771V14.9756V14.9741V14.9725V14.9709V14.9693V14.9676V14.9658V14.964V14.9622V14.9603V14.9584V14.9564V14.9544V14.9524V14.9503V14.9481V14.946V14.9438V14.9415V14.9392V14.9368V14.9344V14.932V14.9295V14.927V14.9245V14.9219V14.9192V14.9165V14.9138V14.9111V14.9083V14.9054V14.9025V14.8996V14.8966V14.8936V14.8906V14.8875V14.8844V14.8812V14.878V14.8748V14.8715V14.8682V14.8648V14.8614V14.858V14.8545V14.851V14.8474V14.8438V14.8402V14.8365V14.8328V14.8291V14.8253V14.8215V14.8177V14.8138V14.8098V14.8059V14.8019V14.7978V14.7938V14.7897V14.7855V14.7813V14.7771V14.7729V14.7686V14.7643V14.7599V14.7555V14.7511V14.7466V14.7421V14.7376V14.733V14.7284V14.7238V14.7191V14.7144V14.7097V14.7049V14.7001V14.6953V14.6904V14.6855V14.6806V14.6756V14.6706V14.6656V14.6605V14.6554V14.6503V14.6451V14.6399V14.6347V14.6294V14.6241V14.6188V14.6134V14.6081V14.6026V14.5972V14.5917V14.5862V14.5807V14.5751V14.5695V14.5639V14.5582V14.5525V14.5468V14.5411V14.5353V14.5295V14.5237V14.5178V14.5119V14.506V14.5V14.4941V14.4881V14.482V14.476V14.4699V14.4638V14.4576V14.4514V14.4452V14.439V14.4328V14.4265V14.4202V14.4138V14.4075V14.4011V14.3947V14.3882V14.3818V14.3753V14.3688V14.3622V14.3557V14.3491V14.3425V14.3358V14.3291V14.3224V14.3157V14.309V14.3022V14.2954V14.2886V14.2818V14.2749V14.268V14.2611V14.2542V14.2472V14.2402V14.2332V14.2262V14.2192V14.2121V14.205V14.1979V14.1908V14.1836V14.1764V14.1692V14.162V14.1547V14.1475V14.1402V14.1329V14.1255V14.1182V14.1108V14.1034V14.096V14.0886V14.0811V14.0736V14.0661V14.0586V14.0511V14.0435V14.036V14.0284V14.0208V14.0131V14.0055V13.9978V13.9901V13.9824V13.9747V13.9669V13.9592V13.9514V13.9436V13.9358V13.928V13.9201V13.9122V13.9044V13.8965V13.8885V13.8806V13.8727V13.8647V13.8567V13.8487V13.8407V13.8327V13.8246V13.8166V13.8085V13.8004V13.7923V13.7842V13.776V13.7679V13.7597V13.7515V13.7433V13.7351V13.7269V13.7186V13.7104V13.7021V13.6938V13.6855V13.6772V13.6689V13.6606V13.6522V13.6439V13.6355V13.6271V13.6187V13.6103V13.6019V13.5934V13.585V13.5765V13.5681V13.5596V13.5511V13.5426V13.5341V13.5255V13.517V13.5085V13.4999V13.4913V13.4827V13.4742V13.4656V13.457V13.4483V13.4397V13.4311V13.4224V13.4138V13.4051V13.3964V13.3877V13.379V13.3703V13.3616V13.3529V13.3442V13.3355V13.3267V13.318V13.3092V13.3005V13.2917V13.2829V13.2741V13.2653V13.2565V13.2477V13.2389V13.2301V13.2213V13.2124V13.2036V13.1947V13.1859V13.177V13.1682V13.1593V13.1504V13.1416V13.1327V13.1238V13.1149V13.106V13.0971V13.0882V13.0793V13.0704V13.0615V13.0526V13.0436V13.0347V13.0258V13.0169V13.0079V12.999V12.99V12.9811V12.9722V12.9632V12.9543V12.9453V12.9363V12.9274V12.9184V12.9095V12.9005V12.8916V12.8826V12.8736V12.8647V12.8557V12.8467V12.8378V12.8288V12.8198V12.8108V12.8019V12.7929V12.7839V12.775V12.766V12.757V12.7481V12.7391V12.7302V12.7212V12.7122V12.7033V12.6943V12.6854V12.6764V12.6674V12.6585V12.6496V12.6406V12.6317V12.6227V12.6138V12.6049V12.5959V12.587V12.5781V12.5692V12.5602V12.5513V12.5424V12.5335V12.5246V12.5157V12.5068V12.4979V12.4891V12.4802V12.4713V12.4624V12.4536V12.4447V12.4359V12.427V12.4182V12.4093V12.4005V12.3917V12.3829V12.3741V12.3653V12.3565V12.3477V12.3389V12.3301V12.3214V12.3126V12.3039V12.2951V12.2864V12.2776V12.2689V12.2602V12.2515V12.2428V12.2341V12.2254V12.2168V12.2081V12.1995V12.1908V12.1822V12.1736V12.165V12.1563V12.1478V12.1392V12.1306V12.122V12.1135V12.1049V12.0964V12.0879V12.0794V12.0709V12.0624V12.0539V12.0455V12.037V12.0286V12.0201V12.0117V12.0033V11.9949V11.9866V11.9782V11.9698V11.9615V11.9532V11.9448V11.9365V11.9283V11.92V11.9117V11.9035V11.8953V11.887V11.8788V11.8706V11.8625V11.8543V11.8462V11.838V11.8299V11.8218V11.8137V11.8057V11.7976V11.7896V11.7815V11.7735V11.7655V11.7576V11.7496V11.7417V11.7338V11.7258V11.718V11.7101V11.7022V11.6944V11.6866V11.6788V11.671V11.6632V11.6555V11.6477V11.64V11.6323V11.6246V11.617V11.6093V11.6017V11.5941V11.5865V11.579V11.5714C14.082 10.8032 13.4226 10 12.582 10C12.0579 10 11.4794 10.2849 11.082 10.9631V10.9658V10.9761V10.9864V10.9967V11.0071V11.0174V11.0278V11.0382V11.0487V11.0591V11.0695V11.08V11.0905V11.101V11.1115V11.122V11.1326V11.1432V11.1537V11.1643V11.1749V11.1855V11.1962V11.2068V11.2175V11.2282V11.2388V11.2496V11.2603V11.271V11.2817V11.2925V11.3033V11.314V11.3248V11.3356V11.3464V11.3573V11.3681V11.379V11.3898V11.4007V11.4116V11.4225V11.4334V11.4443V11.4552V11.4662V11.4771V11.4881V11.499V11.51V11.521V11.532V11.543V11.554V11.565V11.5761V11.5871V11.5981V11.6092V11.6203V11.6313V11.6424V11.6535V11.6646V11.6757V11.6868V11.6979V11.709V11.7202V11.7313V11.7424V11.7536V11.7647V11.7759V11.7871V11.7982V11.8094V11.8206V11.8318V11.8429V11.8541V11.8653V11.8765V11.8878V11.899V11.9102V11.9214V11.9326V11.9438V11.9551V11.9663V11.9775V11.9888V12V12.0113V12.0225V12.0338V12.045V12.0562V12.0675V12.0788V12.09V12.1013V12.1125V12.1238V12.135V12.1463V12.1576V12.1688V12.1801V12.1913V12.2026V12.2139V12.2251V12.2364V12.2476V12.2589V12.2701V12.2814V12.2926V12.3039V12.3151V12.3264V12.3376V12.3489V12.3601V12.3714V12.3826V12.3938V12.405V12.4163V12.4275V12.4387V12.4499V12.4611V12.4723V12.4835V12.4947V12.5059V12.5171V12.5283V12.5395V12.5506V12.5618V12.573V12.5841V12.5953V12.6064V12.6176V12.6287V12.6398V12.6509V12.662V12.6732V12.6843V12.6953V12.7064V12.7175V12.7286V12.7396V12.7507V12.7617V12.7728V12.7838V12.7948V12.8058V12.8168V12.8278V12.8388V12.8498V12.8607V12.8717V12.8826V12.8936V12.9045V12.9154V12.9263V12.9372V12.9481V12.9589V12.9698V12.9806V12.9915V13.0023V13.0131V13.0239V13.0347V13.0455V13.0562V13.067V13.0777V13.0884V13.0991V13.1098V13.1205V13.1312V13.1419V13.1525V13.1631V13.1737V13.1843V13.1949V13.2055V13.2161V13.2266V13.2371V13.2476V13.2581V13.2686V13.2791V13.2895V13.2999V13.3104V13.3208V13.3311V13.3415V13.3519V13.3622V13.3725V13.3828V13.3931V13.4033V13.4136V13.4238V13.434V13.4442V13.4544V13.4645V13.4747V13.4848V13.4949V13.5049V13.515V13.525V13.535V13.545V13.555V13.565V13.5749V13.5848V13.5947V13.6046V13.6144V13.6243V13.6341V13.6439V13.6536V13.6634V13.6731V13.6828V13.6925V13.7021V13.7118V13.7214V13.731V13.7405V13.7501V13.7596V13.7691V13.7786V13.788V13.7974V13.8068V13.8162V13.8256V13.8349V13.8442V13.8534V13.8627V13.8719V13.8811V13.8903V13.8994V13.9086V13.9177V13.9267V13.9358V13.9448V13.9538V13.9627V13.9717V13.9806V13.9895V13.9983V14.0071V14.0159V14.0247V14.0334V14.0421V14.0508V14.0595V14.0681V14.0767V14.0853V14.0938V14.1023V14.1108V14.1193V14.1277V14.1361V14.1444V14.1527V14.161V14.1693V14.1776V14.1858V14.1939V14.2021V14.2102V14.2183V14.2263V14.2343V14.2423V14.2503V14.2582V14.2661V14.2739V14.2817V14.2895V14.2973V14.305V14.3127V14.3203V14.328V14.3356V14.3431V14.3506V14.3581V14.3656V14.373V14.3803V14.3877V14.395V14.4023V14.4095V14.4167V14.4239V14.431V14.4381V14.4451V14.4522V14.4591V14.4661V14.473V14.4799V14.4867V14.4935V14.5002V14.507V14.5137V14.5203V14.5269V14.5335V14.54V14.5465V14.5529V14.5593V14.5657V14.5721V14.5783V14.5846V14.5908V14.597V14.6031V14.6092V14.6153V14.6213V14.6272V14.6332V14.6391V14.6449V14.6507V14.6565V14.6622V14.6679V14.6735V14.6791V14.6847V14.6902V14.6956V14.7011V14.7064V14.7118V14.7171V14.7223V14.7275V14.7327V14.7378V14.7429V14.7479V14.7529V14.7578V14.7627V14.7676V14.7724V14.7772V14.7819V14.7865V14.7912V14.7957V14.8003V14.8048V14.8092V14.8136V14.8179V14.8222V14.8265V14.8307V14.8348V14.839V14.843V14.847V14.851V14.8549V14.8588V14.8626V14.8664V14.8701V14.8738V14.8774V14.881V14.8845V14.888V14.8914V14.8948V14.8981V14.9014V14.9046V14.9078V14.9109V14.914V14.917V14.92V14.9229V14.9258V14.9286V14.9313V14.9341V14.9367V14.9393V14.9419V14.9444V14.9468V14.9492V14.9516V14.9539V14.9561V14.9583V14.9604V14.9625V14.9645V14.9665V14.9684V14.9703V14.9721V14.9738V14.9755V14.9771V14.9787V14.9803V14.9817V14.9831V14.9845V14.9858V14.9871V14.9883V14.9894V14.9905V14.9915V14.9934V14.995V14.9964V14.9976V14.9989V14.9999C11.082 15.5522 10.6343 16 10.082 16C9.52973 16 9.08203 15.5523 9.08203 15V14.9989V14.9976V14.9964V14.995V14.9934V14.9915V14.9905V14.9894V14.9883V14.9871V14.9858V14.9845V14.9831V14.9817V14.9803V14.9787V14.9771V14.9755V14.9738V14.9721V14.9703V14.9684V14.9665V14.9645V14.9625V14.9604V14.9583V14.9561V14.9539V14.9516V14.9492V14.9468V14.9444V14.9419V14.9393V14.9367V14.9341V14.9313V14.9286V14.9258V14.9229V14.92V14.917V14.914V14.9109V14.9078V14.9046V14.9014V14.8981V14.8948V14.8914V14.888V14.8845V14.881V14.8774V14.8738V14.8701V14.8664V14.8626V14.8588V14.8549V14.851V14.847V14.843V14.839V14.8348V14.8307V14.8265V14.8222V14.8179V14.8136V14.8092V14.8048V14.8003V14.7957V14.7912V14.7865V14.7819V14.7772V14.7724V14.7676V14.7627V14.7578V14.7529V14.7479V14.7429V14.7378V14.7327V14.7275V14.7223V14.7171V14.7118V14.7064V14.7011V14.6956V14.6902V14.6847V14.6791V14.6735V14.6679V14.6622V14.6565V14.6507V14.6449V14.6391V14.6332V14.6272V14.6213V14.6153V14.6092V14.6031V14.597V14.5908V14.5846V14.5783V14.5721V14.5657V14.5593V14.5529V14.5465V14.54V14.5335V14.5269V14.5203V14.5137V14.507V14.5002V14.4935V14.4867V14.4799V14.473V14.4661V14.4591V14.4522V14.4451V14.4381V14.431V14.4239V14.4167V14.4095V14.4023V14.395V14.3877V14.3803V14.373V14.3656V14.3581V14.3506V14.3431V14.3356V14.328V14.3203V14.3127V14.305V14.2973V14.2895V14.2817V14.2739V14.2661V14.2582V14.2503V14.2423V14.2343V14.2263V14.2183V14.2102V14.2021V14.1939V14.1858V14.1776V14.1693V14.161V14.1527V14.1444V14.1361V14.1277V14.1193V14.1108V14.1023V14.0938V14.0853V14.0767V14.0681V14.0595V14.0508V14.0421V14.0334V14.0247V14.0159V14.0071V13.9983V13.9895V13.9806V13.9717V13.9627V13.9538V13.9448V13.9358V13.9267V13.9177V13.9086V13.8994V13.8903V13.8811V13.8719V13.8627V13.8534V13.8442V13.8349V13.8256V13.8162V13.8068V13.7974V13.788V13.7786V13.7691V13.7596V13.7501V13.7405V13.731V13.7214V13.7118V13.7021V13.6925V13.6828V13.6731V13.6634V13.6536V13.6439V13.6341V13.6243V13.6144V13.6046V13.5947V13.5848V13.5749V13.565V13.555V13.545V13.535V13.525V13.515V13.5049V13.4949V13.4848V13.4747V13.4645V13.4544V13.4442V13.434V13.4238V13.4136V13.4033V13.3931V13.3828V13.3725V13.3622V13.3519V13.3415V13.3311V13.3208V13.3104V13.2999V13.2895V13.2791V13.2686V13.2581V13.2476V13.2371V13.2266V13.2161V13.2055V13.1949V13.1843V13.1737V13.1631V13.1525V13.1419V13.1312V13.1205V13.1098V13.0991V13.0884V13.0777V13.067V13.0562V13.0455V13.0347V13.0239V13.0131V13.0023V12.9915V12.9806V12.9698V12.9589V12.9481V12.9372V12.9263V12.9154V12.9045V12.8936V12.8826V12.8717V12.8607V12.8498V12.8388V12.8278V12.8168V12.8058V12.7948V12.7838V12.7728V12.7617V12.7507V12.7396V12.7286V12.7175V12.7064V12.6953V12.6843V12.6732V12.662V12.6509V12.6398V12.6287V12.6176V12.6064V12.5953V12.5841V12.573V12.5618V12.5506V12.5395V12.5283V12.5171V12.5059V12.4947V12.4835V12.4723V12.4611V12.4499V12.4387V12.4275V12.4163V12.405V12.3938V12.3826V12.3714V12.3601V12.3489V12.3376V12.3264V12.3151V12.3039V12.2926V12.2814V12.2701V12.2589V12.2476V12.2364V12.2251V12.2139V12.2026V12.1913V12.1801V12.1688V12.1576V12.1463V12.135V12.1238V12.1125V12.1013V12.09V12.0788V12.0675V12.0562V12.045V12.0338V12.0225V12.0113V12V11.9888V11.9775V11.9663V11.9551V11.9438V11.9326V11.9214V11.9102V11.899V11.8878V11.8765V11.8653V11.8541V11.8429V11.8318V11.8206V11.8094V11.7982V11.7871V11.7759V11.7647V11.7536V11.7424V11.7313V11.7202V11.709V11.6979V11.6868V11.6757V11.6646V11.6535V11.6424V11.6313V11.6203V11.6092V11.5981V11.5871V11.5761V11.565V11.554V11.543V11.532V11.521V11.51V11.499V11.4881V11.4771V11.4662V11.4552V11.4443V11.4334V11.4225V11.4116V11.4007V11.3898V11.379V11.3681V11.3573V11.3464V11.3356V11.3248V11.314V11.3033V11.2925V11.2817V11.271V11.2603V11.2496V11.2388V11.2282V11.2175V11.2068V11.1962V11.1855V11.1749V11.1643V11.1537V11.1432V11.1326V11.122V11.1115V11.101V11.0905V11.08V11.0695V11.0591V11.0487V11.0382V11.0278V11.0174V11.0071V10.9967V10.9864V10.9761V10.9658V10.9555V10.9452V10.9349V10.9247V10.9145V10.9043V10.8941V10.884V10.8738V10.8637V10.8536V10.8435V10.8335V10.8234V10.8134V10.8034V10.7934V10.7834V10.7735V10.7636V10.7537V10.7438V10.7339V10.7241V10.7143V10.7104V10.7064V10.7025V10.6985V10.6946V10.6906V10.6866V10.6826V10.6786V10.6746V10.6706V10.6666V10.6626V10.6586V10.6545V10.6505V10.6464V10.6423V10.6383V10.6342V10.6301V10.626V10.6219V10.6178V10.6137V10.6096V10.6055V10.6013V10.5972V10.593V10.5889V10.5847V10.5805V10.5764V10.5722V10.568V10.5638V10.5596V10.5554V10.5512V10.547V10.5427V10.5385V10.5343V10.53V10.5258V10.5215V10.5173V10.513V10.5087V10.5045V10.5002V10.4959V10.4916V10.4873V10.483V10.4787V10.4744V10.4701V10.4657V10.4614V10.4571V10.4528V10.4484V10.4441V10.4397V10.4354V10.431V10.4266V10.4223V10.4179V10.4135V10.4092V10.4048V10.4004V10.396V10.3916V10.3872V10.3828V10.3784V10.374V10.3696V10.3652V10.3607V10.3563V10.3519V10.3475V10.343V10.3386V10.3342V10.3297V10.3253V10.3208V10.3164V10.3119V10.3075V10.303V10.2986V10.2941V10.2896V10.2852V10.2807V10.2762V10.2718V10.2673V10.2628V10.2583V10.2539V10.2494V10.2449V10.2404V10.2359V10.2314V10.227V10.2225V10.218V10.2135V10.209V10.2045V10.2V10.1955V10.191V10.1865V10.182V10.1775V10.173V10.1685V10.164V10.1595V10.155V10.1505V10.146V10.1415V10.137V10.1325V10.128V10.1235V10.119V10.1145V10.11V10.1055V10.1009V10.0964V10.0919V10.0874V10.0829V10.0784V10.0739V10.0694V10.0649V10.0604V10.056V10.0515V10.047V10.0425V10.038V10.0335V10.029V10.0245V10.02V10.0155V10.0111V10.0066V10.0021V9.9976V9.9932V9.9887V9.9842V9.9797V9.9753V9.9708V9.9663V9.9619V9.9574V9.953V9.9485V9.9441V9.9396V9.9352V9.9307V9.9263V9.9219V9.9174V9.913V9.9086V9.9041V9.8997V9.8953V9.8909V9.8865V9.8821V9.8777V9.8733V9.8689V9.8645V9.8601V9.8557V9.8513V9.847V9.8426V9.8382V9.8338V9.8295V9.8251V9.8208V9.8164V9.8121V9.8077V9.8034V9.7991V9.7948V9.7904V9.7861V9.7818V9.7775V9.7732V9.7689V9.7646V9.7603V9.7561V9.7518V9.7475V9.7433V9.739V9.7347V9.7305V9.7263V9.722V9.7178V9.7136V9.7094V9.7052V9.7009V9.6967V9.6926V9.6884V9.6842V9.68V9.6759V9.6717V9.6675V9.6634V9.6593V9.6551V9.651V9.6469V9.6428V9.6387V9.6346V9.6305V9.6264V9.6223V9.6183V9.6142V9.6101V9.6061V9.6021V9.598V9.594V9.59V9.586V9.582V9.578V9.574V9.57V9.5661V9.5621V9.5582V9.5542V9.5503V9.5464V9.5424V9.5385V9.5346V9.5308V9.5269V9.523V9.5191V9.5153V9.5114V9.5076V9.5038V9.5V9.4962V9.4924V9.4886V9.4848V9.481V9.4773V9.4735V9.4698V9.4661V9.4623V9.4586V9.4549V9.4512V9.4476V9.4439V9.4402V9.4366V9.4329V9.4293V9.4257V9.4221V9.4185V9.4149V9.4113V9.4078V9.4042V9.4007V9.3971V9.3936V9.3901V9.3866V9.3831V9.3797V9.3762V9.3728V9.3693V9.3659V9.3625V9.3591V9.3557V9.3523V9.3489V9.3456V9.3422V9.3389V9.3356V9.3323V9.329V9.3257V9.3224V9.3192V9.3159V9.3127V9.3095V9.3063V9.3031V9.2999V9.2967V9.2936V9.2904V9.2873V9.2842V9.2811V9.278V9.2749V9.2719V9.2688V9.2658V9.2628V9.2598V9.2568V9.2538V9.2508V9.2479V9.2449V9.242V9.2391V9.2362V9.2333V9.2305V9.2276V9.2248V9.2219V9.2191V9.2163V9.2136V9.2108V9.2081V9.2053V9.2026V9.1999V9.1972V9.1945V9.1919V9.1892V9.1866V9.184V9.1814V9.1788V9.1763V9.1737V9.1712V9.1687V9.1662V9.1637V9.1612V9.1588V9.1563V9.1539V9.1515V9.1491V9.1467V9.1444V9.142V9.1397V9.1374V9.1351V9.1329V9.1306V9.1284V9.1261V9.1239V9.1217V9.1196V9.1174V9.1153V9.1132V9.1111V9.109V9.1069V9.1049V9.1028V9.1008V9.0988V9.0969V9.0949V9.093V9.091V9.0891V9.0873V9.0854V9.0835V9.0817V9.0799V9.0781V9.0763V9.0746V9.0728V9.0711V9.0694V9.0677V9.0661V9.0644V9.0628V9.0612V9.0596V9.058V9.0565V9.055V9.0535V9.052V9.0505V9.049V9.0476V9.0462V9.0448V9.0434V9.0421V9.0408V9.0394V9.0382V9.0369V9.0356V9.0344V9.0332V9.032V9.0308V9.0297V9.0286V9.0275V9.0264V9.0253V9.0243V9.0232V9.0222V9.0203V9.0185V9.0167V9.015V9.0134V9.0119V9.0105V9.0091V9.0079V9.0067V9.0052V9.0042V9.003V9.002V9.0008C9.08203 8.4485 9.52973 8 10.082 8Z" fill="white"/>
</svg>
