<svg id="Layer_1" data-name="Layer 1" xmlns="http://www.w3.org/2000/svg" viewBox="0 0 600 600"><defs><style>.cls-1{fill:#0b2878;}</style></defs><polygon class="cls-1" points="591.66 354.46 346.13 600 316.32 570.2 486.98 399.54 343.72 256.28 373.52 226.48 516.77 369.74 532.04 354.48 354.29 176.72 384.09 146.92 561.84 324.68 561.86 324.66 591.66 354.46"/><polygon class="cls-1" points="8.34 245.54 38.14 275.34 38.14 275.34 215.91 453.11 245.71 423.31 67.94 245.54 83.21 230.27 214.41 361.47 244.2 331.67 113.01 200.48 283.68 29.8 253.87 0 83.2 170.67 83.2 170.67 53.4 200.47 53.4 200.47 38.14 215.74 38.14 215.74 8.34 245.53 8.34 245.53 8.34 245.54"/><polygon class="cls-1" points="275.34 561.85 453.09 384.1 423.29 354.31 245.54 532.05 230.27 516.79 364.15 382.91 334.36 353.11 200.48 486.99 29.8 316.32 0 346.12 170.67 516.79 170.67 516.8 200.47 546.59 200.47 546.59 215.74 561.86 215.74 561.86 245.53 591.66 245.53 591.66 245.54 591.66 275.34 561.86 275.34 561.85"/><polygon class="cls-1" points="600 253.87 354.46 8.34 324.66 38.14 324.68 38.16 146.91 215.93 176.7 245.72 354.47 67.95 369.74 83.22 240.15 212.82 269.94 242.62 399.54 113.02 570.2 283.68 600 253.87"/></svg>