<svg width="12" height="12" viewBox="0 0 12 12" fill="none" xmlns="http://www.w3.org/2000/svg">
<path d="M4.95228 9.81195C5.95281 9.81195 6.8904 9.51273 7.67069 9.00156L10.4268 11.7382C10.6093 11.9127 10.8422 12 11.0939 12C11.6162 12 12 11.5948 12 11.0836C12 10.8468 11.9182 10.6161 11.742 10.4416L9.00472 7.7174C9.57105 6.91948 9.90456 5.95325 9.90456 4.90597C9.90456 2.20675 7.67698 0 4.95228 0C2.23388 0 0 2.20675 0 4.90597C0 7.6052 2.22758 9.81195 4.95228 9.81195ZM4.95228 8.50286C2.95753 8.50286 1.32145 6.88208 1.32145 4.90597C1.32145 2.92987 2.95753 1.30909 4.95228 1.30909C6.94704 1.30909 8.58312 2.92987 8.58312 4.90597C8.58312 6.88208 6.94704 8.50286 4.95228 8.50286ZM3.32879 5.39844H4.45517V6.51429C4.45517 6.78857 4.67541 7.00675 4.95228 7.00675C5.22916 7.00675 5.4431 6.78857 5.4431 6.51429V5.39844H6.57577C6.85265 5.39844 7.07289 5.18026 7.07289 4.90597C7.07289 4.63169 6.85265 4.41351 6.57577 4.41351H5.4431V3.29766C5.4431 3.02338 5.22916 2.80519 4.95228 2.80519C4.67541 2.80519 4.45517 3.02338 4.45517 3.29766V4.41351H3.32879C3.05191 4.41351 2.83167 4.63169 2.83167 4.90597C2.83167 5.18026 3.05191 5.39844 3.32879 5.39844Z" fill="white"/>
</svg>
