<svg width="36" height="33" viewBox="0 0 36 33" fill="none" xmlns="http://www.w3.org/2000/svg">
<g clip-path="url(#clip0_6169_74047)">
<path d="M35.6841 12.3584C35.6712 12.3584 35.6587 12.3545 35.6481 12.3471L18.1812 0.182658C18.1281 0.145812 18.0649 0.12612 18.0002 0.126231C17.9355 0.126341 17.8724 0.146247 17.8194 0.183275L0.478351 12.347C0.464635 12.3566 0.447659 12.3604 0.431158 12.3575C0.414656 12.3546 0.39998 12.3452 0.39036 12.3315C0.380739 12.3178 0.376961 12.3008 0.379857 12.2843C0.382753 12.2678 0.392086 12.2532 0.405803 12.2435L17.7469 0.0798413C17.8211 0.0280108 17.9095 0.000149408 18 5.99216e-07C18.0906 -0.000148209 18.179 0.0274225 18.2534 0.0790087L35.7203 12.2434C35.7313 12.2511 35.7396 12.2621 35.7439 12.2748C35.7483 12.2876 35.7485 12.3013 35.7444 12.3142C35.7404 12.327 35.7324 12.3382 35.7215 12.3462C35.7107 12.3541 35.6976 12.3584 35.6841 12.3584Z" fill="#3F3D56"/>
<path d="M1.46973 12.7896L18.0179 0.525391L34.6915 13.6622L18.8705 23.0412L10.281 21.0833L1.46973 12.7896Z" fill="#E6E6E6"/>
<path d="M11.0058 28.8342H2.83067C2.78047 28.8343 2.73076 28.8244 2.68436 28.8053C2.63796 28.7861 2.5958 28.758 2.56028 28.7225C2.52477 28.687 2.49659 28.6449 2.47736 28.5985C2.45814 28.5522 2.44824 28.5024 2.44824 28.4523C2.44824 28.4021 2.45814 28.3523 2.47736 28.306C2.49659 28.2596 2.52477 28.2175 2.56028 28.182C2.5958 28.1465 2.63796 28.1184 2.68436 28.0992C2.73076 28.0801 2.78047 28.0702 2.83067 28.0703H11.0058C11.056 28.0702 11.1058 28.0801 11.1522 28.0992C11.1986 28.1184 11.2407 28.1465 11.2762 28.182C11.3118 28.2175 11.3399 28.2596 11.3592 28.306C11.3784 28.3523 11.3883 28.4021 11.3883 28.4523C11.3883 28.5024 11.3784 28.5522 11.3592 28.5985C11.3399 28.6449 11.3118 28.687 11.2762 28.7225C11.2407 28.758 11.1986 28.7861 11.1522 28.8053C11.1058 28.8244 11.056 28.8343 11.0058 28.8342Z" fill="#0B2878"/>
<path d="M5.76374 27.1921H2.83067C2.78047 27.1922 2.73076 27.1823 2.68436 27.1632C2.63796 27.144 2.5958 27.1159 2.56028 27.0804C2.52477 27.0449 2.49659 27.0028 2.47736 26.9564C2.45814 26.9101 2.44824 26.8604 2.44824 26.8102C2.44824 26.76 2.45814 26.7103 2.47736 26.6639C2.49659 26.6175 2.52477 26.5754 2.56028 26.5399C2.5958 26.5044 2.63796 26.4763 2.68436 26.4572C2.73076 26.438 2.78047 26.4282 2.83067 26.4282H5.76374C5.81394 26.4282 5.86366 26.438 5.91006 26.4572C5.95645 26.4763 5.99861 26.5044 6.03413 26.5399C6.06965 26.5754 6.09783 26.6175 6.11705 26.6639C6.13628 26.7103 6.14617 26.76 6.14617 26.8102C6.14617 26.8604 6.13628 26.9101 6.11705 26.9564C6.09783 27.0028 6.06965 27.0449 6.03413 27.0804C5.99861 27.1159 5.95645 27.144 5.91006 27.1632C5.86366 27.1823 5.81394 27.1922 5.76374 27.1921Z" fill="#0B2878"/>
<path d="M18.2502 19.6208C18.1881 19.6208 18.1265 19.6088 18.069 19.5853L7.86328 15.3506V2.09543C7.86342 1.97821 7.91004 1.86584 7.99292 1.78296C8.0758 1.70008 8.18817 1.65346 8.30539 1.65332H27.8843C28.0015 1.65346 28.1139 1.70008 28.1968 1.78296C28.2797 1.86584 28.3263 1.97821 28.3264 2.09543V15.3599L28.3073 15.3681L18.4369 19.5832C18.3778 19.6081 18.3143 19.6208 18.2502 19.6208Z" fill="white"/>
<path d="M18.2506 19.6522C18.1843 19.6522 18.1187 19.6394 18.0573 19.6144L7.83203 15.3716V2.09527C7.83217 1.96968 7.88213 1.84928 7.97093 1.76048C8.05973 1.67168 8.18013 1.62172 8.30572 1.62158H27.8847C28.0102 1.62172 28.1306 1.67168 28.2194 1.76048C28.3083 1.84928 28.3582 1.96968 28.3583 2.09527V15.3806L18.4496 19.6121C18.3866 19.6386 18.3189 19.6522 18.2506 19.6522ZM7.95834 15.2872L18.1055 19.4976C18.2001 19.536 18.3061 19.5353 18.4003 19.4958L28.232 15.2972V2.09527C28.2319 2.00317 28.1953 1.91488 28.1302 1.84976C28.0651 1.78464 27.9768 1.74801 27.8847 1.7479H8.30572C8.21362 1.74801 8.12533 1.78464 8.06021 1.84976C7.99509 1.91488 7.95846 2.00317 7.95835 2.09527L7.95834 15.2872Z" fill="#3F3D56"/>
<path d="M35.5579 12.2319H35.5452L28.2947 15.3279L18.3745 19.5639C18.3358 19.5802 18.2942 19.5887 18.2521 19.589C18.2101 19.5892 18.1684 19.5811 18.1295 19.5652L7.89474 15.3191L0.466098 12.237L0.454749 12.2319H0.442105C0.324892 12.2321 0.212516 12.2787 0.129633 12.3616C0.0467502 12.4444 0.000130058 12.5568 0 12.674V31.874C0.000130225 31.9912 0.0467503 32.1036 0.129633 32.1865C0.212515 32.2694 0.324892 32.316 0.442105 32.3161H35.5579C35.6751 32.316 35.7875 32.2694 35.8704 32.1865C35.9532 32.1036 35.9999 31.9912 36 31.874V12.674C35.9999 12.5568 35.9532 12.4444 35.8704 12.3616C35.7875 12.2787 35.6751 12.2321 35.5579 12.2319ZM35.8737 31.874C35.8736 31.9578 35.8404 32.0381 35.7812 32.0973C35.7219 32.1565 35.6416 32.1898 35.5579 32.1898H0.442105C0.358363 32.1898 0.27806 32.1565 0.218846 32.0973C0.159631 32.0381 0.126349 31.9578 0.126316 31.874V12.674C0.12643 12.5924 0.158107 12.5139 0.214723 12.4551C0.271339 12.3962 0.348511 12.3615 0.430109 12.3582L7.89474 15.4555L18.0809 19.682C18.1911 19.7269 18.3147 19.7262 18.4244 19.6801L28.2947 15.465L35.5705 12.3582C35.652 12.3618 35.729 12.3966 35.7854 12.4554C35.8419 12.5142 35.8735 12.5925 35.8737 12.674V31.874Z" fill="#3F3D56"/>
<path d="M18.148 15.8619C17.7713 15.8626 17.4045 15.7408 17.103 15.5148L17.0843 15.5008L13.1489 12.4877C12.9666 12.348 12.8137 12.1738 12.6987 11.9751C12.5838 11.7763 12.5091 11.5569 12.479 11.3292C12.4489 11.1016 12.4639 10.8703 12.5231 10.6485C12.5824 10.4266 12.6848 10.2187 12.8244 10.0364C12.9641 9.85415 13.1382 9.70119 13.337 9.58624C13.5358 9.4713 13.7552 9.39663 13.9828 9.3665C14.2105 9.33637 14.4418 9.35137 14.6636 9.41063C14.8854 9.4699 15.0934 9.57229 15.2757 9.71193L17.8248 11.6665L23.8486 3.81052C23.9883 3.62831 24.1626 3.4754 24.3614 3.36053C24.5602 3.24565 24.7797 3.17106 25.0073 3.14101C25.2349 3.11096 25.4662 3.12605 25.688 3.1854C25.9098 3.24475 26.1178 3.34722 26.3 3.48693L26.2625 3.53779L26.301 3.48767C26.6685 3.77015 26.909 4.18689 26.9696 4.64645C27.0303 5.10601 26.9062 5.57088 26.6246 5.93905L19.539 15.1796C19.3752 15.3925 19.1644 15.5648 18.9232 15.6832C18.682 15.8015 18.4167 15.8627 18.148 15.8619Z" fill="#0B2878"/>
</g>
<defs>
<clipPath id="clip0_6169_74047">
<rect width="36" height="32.3163" fill="white"/>
</clipPath>
</defs>
</svg>
