<svg width="68" height="68" viewBox="0 0 68 68" fill="none" xmlns="http://www.w3.org/2000/svg">
<rect x="0.25" y="0.25" width="67.5" height="67.5" rx="7.75" fill="url(#paint0_linear_8425_66267)" stroke="black" stroke-width="0.5"/>
<path d="M54 34C54 22.9543 45.0457 14 34 14C22.9543 14 14 22.9543 14 34C14 43.9826 21.3137 52.2566 30.875 53.757V39.7813H25.7969V34H30.875V29.5938C30.875 24.5813 33.8609 21.8125 38.4293 21.8125C40.6175 21.8125 42.9062 22.2031 42.9062 22.2031V27.125H40.3843C37.8998 27.125 37.125 28.6666 37.125 30.2483V34H42.6719L41.7852 39.7813H37.125V53.757C46.6863 52.2566 54 43.9826 54 34Z" fill="#1877F2"/>
<path d="M41.7852 39.7812L42.6719 34H37.125V30.2483C37.125 28.6666 37.8998 27.125 40.3843 27.125H42.9062V22.2031C42.9062 22.2031 40.6174 21.8125 38.4293 21.8125C33.8609 21.8125 30.875 24.5813 30.875 29.5938V34H25.7969V39.7812H30.875V53.757C31.8932 53.9168 32.9369 54 34 54C35.0631 54 36.1067 53.9168 37.125 53.757V39.7812H41.7852Z" fill="white"/>
<defs>
<linearGradient id="paint0_linear_8425_66267" x1="34" y1="0" x2="34" y2="68" gradientUnits="userSpaceOnUse">
<stop stop-color="white"/>
<stop offset="1" stop-color="white" stop-opacity="0"/>
</linearGradient>
</defs>
</svg>
