<svg width="68" height="68" viewBox="0 0 68 68" fill="none" xmlns="http://www.w3.org/2000/svg">
<rect x="0.25" y="0.25" width="67.5" height="67.5" rx="7.75" fill="white" stroke="black" stroke-width="0.5"/>
<path d="M23.9784 37.7559L22.7253 42.434L18.1452 42.5309C16.7764 39.9921 16 37.0874 16 34.0007C16 31.0159 16.7259 28.2011 18.0126 25.7227H18.0136L22.0912 26.4702L23.8774 30.5233C23.5035 31.6132 23.2998 32.7832 23.2998 34.0007C23.2999 35.322 23.5393 36.588 23.9784 37.7559Z" fill="#FBBB00"/>
<path d="M51.6855 30.6367C51.8922 31.7256 52 32.8501 52 33.9993C52 35.288 51.8645 36.5451 51.6064 37.7576C50.7302 41.8838 48.4406 45.4867 45.2689 48.0364L45.2679 48.0354L40.132 47.7734L39.4051 43.2357C41.5097 42.0015 43.1544 40.0699 44.0208 37.7576H34.3958V30.6367H44.1612H51.6855Z" fill="#518EF8"/>
<path d="M45.2679 48.0346L45.2689 48.0356C42.1842 50.5151 38.2657 51.9986 34.0001 51.9986C27.1453 51.9986 21.1855 48.1672 18.1453 42.5288L23.9785 37.7539C25.4985 41.8108 29.4121 44.6987 34.0001 44.6987C35.9722 44.6987 37.8197 44.1656 39.405 43.235L45.2679 48.0346Z" fill="#28B446"/>
<path d="M45.4894 20.1439L39.6582 24.9179C38.0174 23.8923 36.0779 23.2998 34.0001 23.2998C29.3082 23.2998 25.3215 26.3203 23.8775 30.5226L18.0137 25.722H18.0127C21.0084 19.9461 27.0434 16 34.0001 16C38.3675 16 42.372 17.5557 45.4894 20.1439Z" fill="#F14336"/>
</svg>
