<svg width="68" height="68" viewBox="0 0 68 68" fill="none" xmlns="http://www.w3.org/2000/svg">
<rect x="0.25" y="0.25" width="67.5" height="67.5" rx="7.75" fill="white" stroke="black" stroke-width="0.5"/>
<path fill-rule="evenodd" clip-rule="evenodd" d="M14 34C14 22.9543 22.9543 14 34 14C45.0457 14 54 22.9543 54 34C54 45.0457 45.0457 54 34 54C22.9543 54 14 45.0457 14 34Z" fill="#55ACEE"/>
<path fill-rule="evenodd" clip-rule="evenodd" d="M33.401 30.2563L33.443 30.9483L32.7435 30.8636C30.1974 30.5387 27.973 29.4371 26.0844 27.5869L25.1611 26.6689L24.9233 27.3468C24.4197 28.858 24.7414 30.454 25.7907 31.5274C26.3503 32.1205 26.2243 32.2053 25.2591 31.8522C24.9233 31.7392 24.6295 31.6545 24.6016 31.6968C24.5036 31.7957 24.8394 33.0809 25.1052 33.5894C25.4689 34.2955 26.2104 34.9876 27.0218 35.3972L27.7072 35.722L26.8958 35.7361C26.1124 35.7361 26.0844 35.7502 26.1684 36.0468C26.4482 36.9649 27.5534 37.9394 28.7844 38.3631L29.6518 38.6597L28.8964 39.1116C27.7772 39.7613 26.4622 40.1285 25.1471 40.1567C24.5176 40.1709 24 40.2273 24 40.2697C24 40.411 25.7067 41.2019 26.7 41.5126C29.6798 42.4306 33.2191 42.0351 35.8772 40.4674C37.7658 39.3517 39.6543 37.1343 40.5357 34.9876C41.0113 33.8436 41.487 31.7533 41.487 30.7506C41.487 30.1009 41.529 30.0162 42.3124 29.2394C42.774 28.7874 43.2077 28.2931 43.2916 28.1519C43.4315 27.8835 43.4175 27.8835 42.7041 28.1236C41.515 28.5473 41.3471 28.4908 41.9346 27.8553C42.3683 27.4033 42.8859 26.5842 42.8859 26.3441C42.8859 26.3017 42.6761 26.3723 42.4383 26.4994C42.1865 26.6407 41.6269 26.8525 41.2072 26.9796L40.4518 27.2197L39.7663 26.7537C39.3885 26.4994 38.8569 26.217 38.5771 26.1322C37.8637 25.9345 36.7725 25.9627 36.129 26.1887C34.3803 26.8243 33.2751 28.4626 33.401 30.2563Z" fill="white"/>
</svg>
