<svg width="20" height="20" viewBox="0 0 20 20" fill="none" xmlns="http://www.w3.org/2000/svg">
<path d="M3.25033 9.9987C3.25033 8.5737 4.40866 7.41536 5.83366 7.41536H9.16699V5.83203H5.83366C3.53366 5.83203 1.66699 7.6987 1.66699 9.9987C1.66699 12.2987 3.53366 14.1654 5.83366 14.1654H9.16699V12.582H5.83366C4.40866 12.582 3.25033 11.4237 3.25033 9.9987ZM6.66699 10.832H13.3337V9.16536H6.66699V10.832ZM14.167 5.83203H10.8337V7.41536H14.167C15.592 7.41536 16.7503 8.5737 16.7503 9.9987C16.7503 11.4237 15.592 12.582 14.167 12.582H10.8337V14.1654H14.167C16.467 14.1654 18.3337 12.2987 18.3337 9.9987C18.3337 7.6987 16.467 5.83203 14.167 5.83203Z" fill="#0B2878"/>
</svg>
