<svg width="68" height="68" viewBox="0 0 68 68" fill="none" xmlns="http://www.w3.org/2000/svg">
<rect x="0.25" y="0.25" width="67.5" height="67.5" rx="7.75" stroke="black" stroke-width="0.5"/>
<g clip-path="url(#clip0_8425_66369)">
<path d="M34 54C22.956 54 14 45.044 14 34C14 22.956 22.956 14 34 14C45.044 14 54 22.956 54 34C54 45.044 45.044 54 34 54Z" fill="#FF0000"/>
<path d="M46.728 27.5646C46.424 26.4126 45.524 25.5086 44.38 25.2006C42.308 24.6406 34.004 24.6406 34.004 24.6406C34.004 24.6406 25.696 24.6406 23.628 25.2006C22.484 25.5086 21.584 26.4126 21.28 27.5646C20.72 29.6486 20.72 34.0006 20.72 34.0006C20.72 34.0006 20.72 38.3526 21.276 40.4366C21.58 41.5886 22.48 42.4926 23.624 42.8006C25.696 43.3606 34 43.3606 34 43.3606C34 43.3606 42.308 43.3606 44.376 42.8006C45.52 42.4926 46.42 41.5886 46.724 40.4366C47.28 38.3526 47.28 34.0006 47.28 34.0006C47.28 34.0006 47.28 29.6486 46.728 27.5646ZM31.284 37.9486V30.0526L38.224 34.0006L31.284 37.9486Z" fill="white"/>
</g>
<defs>
<clipPath id="clip0_8425_66369">
<rect width="40" height="40" fill="white" transform="translate(14 14)"/>
</clipPath>
</defs>
</svg>
