<svg width="28" height="28" viewBox="0 0 28 28" fill="none" xmlns="http://www.w3.org/2000/svg">
<path d="M20.9346 21.4413C21.2158 21.7138 21.6465 21.7313 21.9277 21.4413C22.2178 21.1425 22.2002 20.7206 21.9277 20.4481L7.02148 5.55067C6.74902 5.27821 6.29199 5.26942 6.01953 5.55067C5.75586 5.81434 5.75586 6.27138 6.01953 6.53505L20.9346 21.4413ZM14.0088 6.05165C12.4707 6.05165 11.082 6.31532 9.79004 6.74598L11.2139 8.16981C12.1016 7.92372 13.0156 7.77431 14.0088 7.77431C19.5986 7.77431 24.0371 12.6347 24.0371 13.663C24.0371 14.3573 22.6309 16.1415 20.3896 17.5477L21.708 18.8749C24.4678 17.0643 26.0762 14.7001 26.0762 13.663C26.0762 11.8612 21.2246 6.05165 14.0088 6.05165ZM14.0088 21.2831C15.626 21.2831 17.1113 21.0018 18.4561 20.536L17.0322 19.1122C16.083 19.3934 15.0811 19.5604 14.0088 19.5604C8.40137 19.5604 3.96289 14.8934 3.96289 13.663C3.96289 13.0741 5.44824 11.1845 7.83008 9.7079L6.48535 8.36317C3.62012 10.1913 1.92383 12.6171 1.92383 13.663C1.92383 15.4647 6.88086 21.2831 14.0088 21.2831ZM18.377 15.3417C18.6055 14.8319 18.7285 14.2518 18.7285 13.663C18.7285 11.035 16.6279 8.95204 14.0088 8.95204C13.4023 8.95204 12.8398 9.07509 12.3213 9.28602L18.377 15.3417ZM14.0088 18.3827C14.6768 18.3827 15.3096 18.2245 15.8809 17.952L9.70215 11.7733C9.4209 12.3446 9.27148 12.9862 9.27148 13.6718C9.28027 16.2294 11.3721 18.3827 14.0088 18.3827Z" fill="#0B2878"/>
</svg>
