<svg width="72" height="48" viewBox="0 0 72 48" fill="none" xmlns="http://www.w3.org/2000/svg">
<path d="M0.5 8C0.5 3.85786 3.85787 0.5 8 0.5H32C36.1421 0.5 39.5 3.85786 39.5 8V20C39.5 24.1421 36.1421 27.5 32 27.5H19.4248C17.1705 27.5 15.0085 28.3955 13.4144 29.9896L10.9029 32.5011L11.4145 29.2784C11.5626 28.3449 10.8413 27.5 9.8961 27.5H5.11738C2.56727 27.5 0.5 25.4327 0.5 22.8826V8Z" fill="white" stroke="#6D7EAE"/>
<path d="M71.5 21C71.5 16.8579 68.1421 13.5 64 13.5H40C35.8579 13.5 32.5 16.8579 32.5 21V33C32.5 37.1421 35.8579 40.5 40 40.5H52.5752C54.8295 40.5 56.9915 41.3955 58.5856 42.9896L61.0971 45.5011L60.5855 42.2784C60.4374 41.3449 61.1587 40.5 62.1039 40.5H66.8826C69.4327 40.5 71.5 38.4327 71.5 35.8826V21Z" fill="white" stroke="#6D7EAE"/>
<path d="M22.5 20.68C21.5 21.1067 20.4667 21.32 19.4 21.32C18 21.32 16.7267 20.9933 15.58 20.34C14.4467 19.6733 13.5533 18.7667 12.9 17.62C12.2467 16.4733 11.92 15.2133 11.92 13.84C11.92 12.4667 12.2467 11.2067 12.9 10.06C13.5533 8.91333 14.4467 8.01333 15.58 7.36C16.7267 6.69333 18 6.36 19.4 6.36C20.8 6.36 22.0667 6.69333 23.2 7.36C24.3467 8.01333 25.2467 8.91333 25.9 10.06C26.5533 11.2067 26.88 12.4667 26.88 13.84C26.88 14.9333 26.6733 15.9533 26.26 16.9C25.8467 17.8467 25.2667 18.6667 24.52 19.36L25.62 21L23.62 22.34L22.5 20.68ZM19.4 18.76C19.92 18.76 20.46 18.66 21.02 18.46L19.46 16.12L21.46 14.76L23.02 17.12C23.3933 16.7067 23.68 16.22 23.88 15.66C24.08 15.1 24.18 14.4933 24.18 13.84C24.18 12.88 23.9667 12.0267 23.54 11.28C23.1267 10.5333 22.5533 9.95333 21.82 9.54C21.0867 9.12667 20.28 8.92 19.4 8.92C18.52 8.92 17.7133 9.12667 16.98 9.54C16.26 9.95333 15.6867 10.5333 15.26 11.28C14.8467 12.0267 14.64 12.88 14.64 13.84C14.64 14.8 14.8467 15.6533 15.26 16.4C15.6867 17.1467 16.26 17.7267 16.98 18.14C17.7133 18.5533 18.52 18.76 19.4 18.76Z" fill="#6D7EAE" fill-opacity="0.933333"/>
<path d="M50.66 19.68H53.76L59.14 34H56.16L54.96 30.58H49.48L48.28 34H45.3L50.66 19.68ZM54.08 28.1L52.82 24.5L52.3 22.78H52.14L51.62 24.5L50.34 28.1H54.08Z" fill="#6D7EAE" fill-opacity="0.933333"/>
</svg>
