<svg width="20" height="20" viewBox="0 0 20 20" fill="none" xmlns="http://www.w3.org/2000/svg">
<path d="M3.24984 9.9987C3.24984 8.5737 4.40817 7.41536 5.83317 7.41536H9.1665V5.83203H5.83317C3.53317 5.83203 1.6665 7.6987 1.6665 9.9987C1.6665 12.2987 3.53317 14.1654 5.83317 14.1654H9.1665V12.582H5.83317C4.40817 12.582 3.24984 11.4237 3.24984 9.9987ZM6.6665 10.832H13.3332V9.16536H6.6665V10.832ZM14.1665 5.83203H10.8332V7.41536H14.1665C15.5915 7.41536 16.7498 8.5737 16.7498 9.9987C16.7498 11.4237 15.5915 12.582 14.1665 12.582H10.8332V14.1654H14.1665C16.4665 14.1654 18.3332 12.2987 18.3332 9.9987C18.3332 7.6987 16.4665 5.83203 14.1665 5.83203Z" fill="#0B2878" fill-opacity="0.87"/>
</svg>
