<?xml version="1.0" encoding="UTF-8"?><svg xmlns="http://www.w3.org/2000/svg" viewBox="0 0 243.8 117.96"><defs><style>.d{fill:#fff;}</style></defs><g id="a"/><g id="b"><g id="c"><g><path class="d" d="M97.63,81.61L29.22,42.11c-3.07-1.77-6.42-2.61-9.72-2.61-6.73,0-13.28,3.5-16.89,9.74-5.38,9.32-2.19,21.23,7.13,26.61l68.41,39.5c3.07,1.77,6.42,2.61,9.72,2.61,6.73,0,13.28-3.49,16.89-9.74,5.38-9.32,2.19-21.23-7.13-26.61Z"/><path class="d" d="M234.06,42.11L165.65,2.61C162.58,.84,159.23,0,155.92,0c-6.73,0-13.28,3.49-16.89,9.74-5.38,9.32-2.19,21.23,7.13,26.61l68.41,39.5c3.07,1.77,6.42,2.61,9.72,2.61,6.73,0,13.28-3.49,16.89-9.74,5.38-9.32,2.19-21.23-7.13-26.61Z"/><path class="d" d="M211.87,80.54l-31.93-18.43-33.77,19.5c-9.32,5.38-12.51,17.29-7.13,26.61,3.61,6.25,10.16,9.74,16.89,9.74,3.3,0,6.65-.84,9.72-2.61l54.99-31.75c-3.07-.46-6.05-1.49-8.77-3.06Z"/><path class="d" d="M31.93,37.42l31.93,18.43,33.77-19.5c9.32-5.38,12.51-17.29,7.13-26.61C99.38,.43,87.47-2.77,78.15,2.61L23.16,34.36c3.07,.46,6.05,1.49,8.77,3.06Z"/></g></g></g></svg>