<svg width="24" height="24" viewBox="0 0 24 24" fill="none" xmlns="http://www.w3.org/2000/svg">
<path d="M6.1585 17.6123C4.97374 16.3792 5.013 14.4139 6.24607 13.2291L9.13043 10.4577L7.81403 9.08767L4.92967 11.859C2.93946 13.7713 2.87618 16.9385 4.78843 18.9287C6.70067 20.9189 9.86787 20.9822 11.8581 19.0699L14.7424 16.2986L13.426 14.9285L10.5417 17.6999C9.30862 18.8846 7.34326 18.8454 6.1585 17.6123ZM9.80781 15.4927L15.5765 9.95L14.1908 8.50782L8.42212 14.0506L9.80781 15.4927ZM12.1406 4.93062L9.25621 7.70199L10.5726 9.07206L13.457 6.30069C14.69 5.11593 16.6554 5.1552 17.8402 6.38826C19.0249 7.62133 18.9856 9.58669 17.7526 10.7714L14.8682 13.5428L16.1846 14.9129L19.069 12.1415C21.0592 10.2293 21.1225 7.06207 19.2102 5.07186C17.298 3.08166 14.1308 3.01838 12.1406 4.93062Z" fill="#0B2878"/>
</svg>
