<svg width="60" height="60" viewBox="0 0 60 60" fill="none" xmlns="http://www.w3.org/2000/svg">
<g opacity="0.3">
<rect x="0.5" y="0.5" width="12.3333" height="2.33333" fill="white" stroke="white"/>
<rect x="2.83398" y="0.5" width="12.3333" height="2.33333" transform="rotate(90 2.83398 0.5)" fill="white" stroke="white"/>
<rect x="-0.5" y="0.5" width="12.3333" height="2.33333" transform="matrix(-1 0 0 1 59 0)" fill="white" stroke="white"/>
<rect x="0.5" y="0.5" width="12.3333" height="2.33333" transform="matrix(0 1 1 0 56.666 0)" fill="white" stroke="white"/>
<rect x="59.5" y="59.5" width="12.3333" height="2.33333" transform="rotate(180 59.5 59.5)" fill="white" stroke="white"/>
<rect x="57.166" y="59.5" width="12.3333" height="2.33333" transform="rotate(-90 57.166 59.5)" fill="white" stroke="white"/>
<rect x="0.5" y="-0.5" width="12.3333" height="2.33333" transform="matrix(1 0 0 -1 0 59)" fill="white" stroke="white"/>
<rect x="-0.5" y="-0.5" width="12.3333" height="2.33333" transform="matrix(0 -1 -1 0 2.33398 59)" fill="white" stroke="white"/>
<rect x="7.16602" y="7.16675" width="19" height="19" fill="white" stroke="white"/>
<rect x="33.834" y="7.16675" width="19" height="19" fill="white" stroke="white"/>
<rect x="33.834" y="33.8333" width="5.66667" height="5.66667" fill="white" stroke="white"/>
<rect x="33.834" y="47.1667" width="5.66667" height="5.66666" fill="white" stroke="white"/>
<rect x="40.5" y="40.5" width="5.66667" height="5.66667" fill="white" stroke="white"/>
<rect x="47.166" y="33.8333" width="5.66666" height="5.66667" fill="white" stroke="white"/>
<rect x="47.166" y="47.1667" width="5.66666" height="5.66666" fill="white" stroke="white"/>
<rect x="7.16602" y="33.8333" width="19" height="19" fill="white" stroke="white"/>
</g>
</svg>
