<svg width="18" height="18" viewBox="0 0 18 18" fill="none" xmlns="http://www.w3.org/2000/svg">
<path d="M9.13152 16.9155L16.5143 9.52511C17.1019 8.92997 17.1622 8.58343 17.1622 7.72461V4.86942C17.1622 4.0332 16.9663 3.74693 16.3561 3.13672L14.631 1.41155C14.0132 0.801339 13.7269 0.605469 12.8983 0.605469H10.0355C9.18426 0.605469 8.83772 0.665737 8.25011 1.26088L0.852228 8.64369C-0.277795 9.77372 -0.292862 10.9715 0.859761 12.1091L5.66612 16.9155C6.81121 18.053 8.0015 18.0455 9.13152 16.9155ZM8.15971 15.7628C7.6625 16.26 7.14269 16.2676 6.63041 15.7553L2.01238 11.1448C1.50011 10.6325 1.51517 10.1052 2.00485 9.61551L9.31986 2.31557C9.47053 2.1649 9.61367 2.0745 9.85474 2.0745H12.8832C13.1092 2.0745 13.2674 2.15737 13.4181 2.30804L15.4596 4.34961C15.6028 4.50028 15.6857 4.65095 15.6857 4.88449V7.91295C15.6857 8.16155 15.6103 8.30469 15.4596 8.45536L8.15971 15.7628ZM11.9566 6.88839C12.5743 6.88839 13.0414 6.41378 13.0414 5.80357C13.0414 5.20089 12.5743 4.71875 11.9566 4.71875C11.3464 4.71875 10.8793 5.20089 10.8793 5.80357C10.8793 6.41378 11.3464 6.88839 11.9566 6.88839Z" fill="#0B2878"/>
</svg>
