<svg width="20" height="20" viewBox="0 0 20 20" fill="none" xmlns="http://www.w3.org/2000/svg">
<path d="M4.62793 15.2525H15.3694C16.7317 15.2525 17.4411 14.5494 17.4411 13.2059V9.48312C17.4411 8.78627 17.347 8.4661 17.0142 8.05176L14.9551 5.51549C14.1829 4.56752 13.8376 4.27246 12.7076 4.27246H7.29604C6.15974 4.27246 5.82073 4.56752 5.04855 5.51549L2.98312 8.05176C2.65667 8.4661 2.5625 8.78627 2.5625 9.48312V13.2059C2.5625 14.5494 3.2719 15.2525 4.62793 15.2525ZM10.0018 10.8705C9.1543 10.8705 8.62695 10.1486 8.62695 9.47056V9.44545C8.62695 9.20061 8.48256 8.96833 8.14983 8.96833H4.11942C3.91225 8.96833 3.8683 8.79255 3.97503 8.66071L6.24135 5.81682C6.52386 5.46526 6.84403 5.31459 7.26465 5.31459H12.739C13.1596 5.31459 13.4798 5.46526 13.756 5.81682L16.0286 8.66071C16.129 8.79255 16.0914 8.96833 15.8842 8.96833H11.8475C11.5211 8.96833 11.3704 9.20061 11.3704 9.44545V9.47056C11.3704 10.1486 10.8431 10.8705 10.0018 10.8705ZM4.69071 13.9969C4.11314 13.9969 3.79925 13.6956 3.79925 13.0929V10.0732H7.55971C7.7606 11.1907 8.73368 12.0257 10.0018 12.0257C11.2699 12.0257 12.243 11.1907 12.4439 10.0732H16.2044V13.0929C16.2044 13.6956 15.8842 13.9969 15.3066 13.9969H4.69071Z" fill="#0B2878"/>
</svg>
